<svg width="32" height="32" viewBox="0 0 32 32" fill="none" xmlns="http://www.w3.org/2000/svg">
<g id="Frame 1385">
<path id="Vector" d="M32 16C32 7.16345 24.8366 0 16 0C7.16344 0 0 7.16345 0 16C0 23.9861 5.85096 30.6054 13.5 31.8057V20.625H9.43751V16H13.5V12.475C13.5 8.46501 15.8887 6.25002 19.5434 6.25002C21.294 6.25002 23.125 6.56251 23.125 6.56251V10.5H21.1074C19.1198 10.5 18.5 11.7334 18.5 12.9987V16H22.9375L22.2281 20.625H18.5V31.8057C26.149 30.6054 32 23.9861 32 16Z" fill="white"/>
<path id="Vector_2" d="M22.2281 20.625L22.9375 16H18.5V12.9987C18.5 11.7334 19.1198 10.5 21.1074 10.5H23.125V6.56249C23.125 6.56249 21.294 6.25 19.5434 6.25C15.8887 6.25 13.5 8.46499 13.5 12.475V16H9.4375V20.625H13.5V31.8057C14.327 31.9353 15.1629 32.0002 16 32C16.8505 32 17.6854 31.9335 18.5 31.8057V20.625H22.2281Z" fill="#3975EA"/>
</g>
</svg>
