<svg width="33" height="32" viewBox="0 0 33 32" fill="none" xmlns="http://www.w3.org/2000/svg">
<g id="Frame 1386">
<path id="Vector" d="M32.1194 16.3645C32.1207 15.2743 32.0289 14.1859 31.8449 13.1113H16.8164V19.2733H25.424C25.2479 20.2575 24.8751 21.1957 24.3281 22.0313C23.7811 22.8669 23.0712 23.5826 22.2413 24.1354V28.1352H27.3784C30.3863 25.3509 32.1194 21.2333 32.1194 16.3645Z" fill="#4285F4"/>
<path id="Vector_2" d="M16.8165 31.9998C21.117 31.9998 24.738 30.5821 27.3785 28.1377L22.2413 24.1379C20.8115 25.1112 18.97 25.6667 16.8165 25.6667C12.6598 25.6667 9.13179 22.8535 7.87019 19.0625H2.57812V23.1846C3.9045 25.8344 5.93835 28.062 8.45261 29.6187C10.9669 31.1753 13.8626 31.9997 16.8165 31.9998Z" fill="#34A853"/>
<path id="Vector_3" d="M7.86982 19.0627C7.20286 17.0762 7.20286 14.925 7.86982 12.9385V8.81641H2.57776C1.46196 11.0456 0.880859 13.5058 0.880859 16.0006C0.880859 18.4954 1.46196 20.9556 2.57776 23.1848L7.86982 19.0627Z" fill="#FBBC04"/>
<path id="Vector_4" d="M16.8165 6.33416C19.0891 6.29688 21.285 7.15897 22.9297 8.73407L27.4781 4.16757C24.5939 1.44783 20.7731 -0.0453466 16.8165 0.00104971C13.8626 0.00118487 10.9669 0.825586 8.45261 2.38222C5.93835 3.93884 3.9045 6.16644 2.57812 8.81629L7.87019 12.9384C9.13179 9.14739 12.6598 6.33416 16.8165 6.33416Z" fill="#EA4335"/>
</g>
</svg>
