<svg width="354" height="293" viewBox="0 0 354 293" fill="none" xmlns="http://www.w3.org/2000/svg">
<path d="M38.5165 179.701C38.2997 179.409 38.0912 179.126 37.8827 178.834C35.4557 175.615 32.887 172.504 30.1765 169.526C30.2432 163.53 30.1015 140.837 24.0216 142.004C18.4088 143.08 25.7396 161.045 28.8588 168.125C27.6745 166.866 26.4652 165.623 25.2309 164.414C21.1276 159.093 7.34163 141.946 3.29674 146.583C-0.447913 150.886 15.9402 160.377 23.1459 164.247C24.4803 165.523 25.798 166.824 27.074 168.159C20.1352 164.689 2.82136 156.683 1.2868 162.154C-0.381193 168.092 22.2535 169.343 28.4001 169.576C31.5943 173.021 34.5967 176.649 37.3989 180.418C31.1773 176.482 13.9719 166.199 11.8536 171.628C9.58509 177.441 32.5868 180.927 38.3414 181.703C41.3688 185.881 44.1543 190.226 46.7064 194.713C40.76 189.676 25.9148 177.841 23.1209 182.779C20.0935 188.141 41.7274 194.738 47.6738 196.431C48.0825 197.173 48.4995 197.924 48.8998 198.675C50.9264 202.486 52.7946 206.389 54.5126 210.367C49.125 205.088 34.7385 191.752 31.5609 196.556C28.1499 201.719 49.4836 209.859 55.1798 211.918C57.7235 217.973 59.9002 224.187 61.66 230.5C57.0563 224.504 44.7048 209.316 40.8851 213.628C36.7818 218.257 56.7644 229.316 62.1187 232.16C62.1937 232.427 62.2688 232.693 62.3438 232.96C62.911 235.129 63.4614 237.314 63.845 239.516C63.9952 240.358 65.3045 240.158 65.1628 239.307C64.7791 237.114 64.2871 234.929 63.7283 232.76C66.4555 227.272 76.0881 206.973 70.1417 205.388C64.7291 203.945 63.4364 222.535 63.1361 230.542C62.1187 226.93 60.9344 223.361 59.6834 219.858C58.791 217.356 57.8402 214.871 56.8228 212.411C58.6993 206.773 65.5297 185.03 59.3748 184.288C53.7537 183.604 55.1715 202.578 55.9888 210.409C54.0205 205.78 51.8355 201.243 49.4335 196.831C50.9097 191.077 56.2056 168.909 50.009 168.601C44.2961 168.309 47.1484 187.541 48.4995 195.147C45.8807 190.476 43.0201 185.939 39.9093 181.586C40.5848 175.331 42.553 153.23 36.4565 153.797C30.9104 154.306 36.0312 171.995 38.5332 179.693L38.5165 179.701Z" fill="#8C8C8C"/>
<path d="M326.13 143.156C326.28 142.831 326.438 142.506 326.588 142.181C328.256 138.511 329.758 134.766 331.084 130.963C336.388 128.153 356.254 117.186 352.317 112.407C348.689 107.987 336.404 123.007 331.684 129.137C332.226 127.494 332.735 125.843 333.21 124.175C335.929 118.028 344.403 97.7201 338.389 96.3857C332.818 95.1514 332.318 114.083 332.351 122.265C331.868 124.049 331.35 125.826 330.792 127.586C330.516 119.829 329.291 100.798 323.744 102.065C317.731 103.433 327.439 123.916 330.175 129.429C328.673 133.882 326.922 138.244 324.945 142.514C325.437 135.167 326.246 115.142 320.467 115.876C314.27 116.66 322.21 138.528 324.278 143.957C322.06 148.611 319.566 153.139 316.847 157.526C318.432 149.895 321.734 131.197 316.063 131.105C309.9 131.005 314.445 153.164 315.796 159.194C315.338 159.911 314.879 160.629 314.412 161.338C312.027 164.94 309.491 168.443 306.823 171.854C308.883 164.598 313.728 145.592 307.982 145.091C301.819 144.557 304.854 167.192 305.772 173.18C301.668 178.309 297.248 183.188 292.545 187.75C295.614 180.845 303.053 162.73 297.44 161.438C291.41 160.045 291.244 182.888 291.31 188.943C291.11 189.135 290.918 189.327 290.718 189.518C289.083 191.053 287.432 192.579 285.672 193.964C284.997 194.497 285.806 195.556 286.481 195.023C288.224 193.638 289.909 192.162 291.552 190.636C297.682 190.411 320.108 189.176 318.665 183.188C317.348 177.742 300.401 185.49 293.22 189.051C295.906 186.433 298.474 183.68 300.951 180.92C302.728 178.943 304.454 176.917 306.13 174.848C311.977 173.806 334.345 169.419 332.051 163.648C329.966 158.385 313.978 168.685 307.481 173.155C310.601 169.219 313.545 165.132 316.28 160.912C322.043 159.461 344.044 153.523 341.358 147.927C338.881 142.764 323.352 154.465 317.323 159.286C320.175 154.757 322.794 150.07 325.129 145.258C330.95 142.864 351.3 134.032 347.889 128.945C344.786 124.316 331.701 137.26 326.13 143.14V143.156Z" fill="#8C8C8C"/>
<path d="M82.7516 160.556C82.7516 160.556 84.9367 155.902 86.0543 149.755C85.8708 147.829 85.6039 145.961 85.2453 144.142C84.945 142.558 84.5697 141.023 84.1527 139.514C83.0519 141.407 81.6591 143.375 80.1162 144.651C80.1162 144.651 81.8509 140.965 83.0185 135.828C81.8175 132.35 80.3247 129.08 78.565 125.986C77.9978 127.846 77.2472 129.748 76.2548 131.165C76.2548 131.165 76.8719 127.804 76.8719 123.176C76.5383 122.65 76.2047 122.117 75.8545 121.6C73.8946 118.747 71.6928 116.07 69.2409 113.56C69.0407 115.67 68.6404 117.913 67.8731 119.648C67.8731 119.648 67.8731 116.095 67.0057 111.391C64.5204 109.106 61.7932 106.996 58.7742 105.078C58.8576 107.113 58.7742 109.265 58.3071 111.016C58.3071 111.016 57.8401 107.872 56.514 103.694C53.8202 102.134 50.9012 100.741 47.7237 99.5152C48.0823 101.2 48.3158 102.935 48.2324 104.452C48.2324 104.452 47.3567 102.026 45.6554 98.7479C43.3619 97.9473 40.9099 97.2634 38.2912 96.6796C35.6307 96.0958 32.8201 95.6038 29.5425 95.4453C28.5167 98.5645 27.9663 101.358 27.566 104.052C27.1656 106.704 26.9321 109.24 26.8571 111.667C29.309 114.435 31.2606 116.12 31.2606 116.12C29.8094 115.653 28.2748 114.819 26.832 113.877C26.832 117.279 27.0989 120.507 27.591 123.584C31.0187 126.32 33.7876 127.88 33.7876 127.88C31.9861 127.696 29.9512 127.004 28.0747 126.186C28.7836 129.689 29.776 132.992 31.0187 136.136C35.1053 138.63 38.4163 139.906 38.4163 139.906C36.5148 139.998 34.2796 139.572 32.2363 138.997C33.7042 142.191 35.4139 145.202 37.3738 148.054C37.7324 148.571 38.1077 149.063 38.483 149.572C42.8031 151.223 46.1641 151.857 46.1641 151.857C44.4794 152.274 42.4445 152.299 40.5013 152.166C42.7614 154.909 45.2801 157.478 48.099 159.847C53.3198 160.597 57.3814 160.297 57.3814 160.297C55.6383 161.289 53.2948 161.873 51.1348 162.232C52.3941 163.158 53.6951 164.058 55.0629 164.909C56.6308 165.885 58.2821 166.811 60.0085 167.67C66.1467 168.829 71.2758 168.454 71.2758 168.454C69.7496 169.321 67.773 169.871 65.8548 170.238C66.3969 170.447 66.9474 170.647 67.5145 170.847C69.8413 171.664 72.3266 172.373 74.9788 172.965C77.6309 173.558 80.4331 174.05 83.694 174.216C84.7032 171.106 85.2453 168.32 85.6456 165.626C86.0459 162.932 86.2711 160.364 86.3378 157.895C86.3545 157.303 86.3629 156.711 86.3629 156.127C85.337 157.787 84.111 159.43 82.7516 160.547V160.556Z" fill="#8C8C8C"/>
<mask id="mask0_3056_70096" style="mask-type:luminance" maskUnits="userSpaceOnUse" x="26" y="95" width="61" height="80">
<path d="M82.7516 160.558C82.7516 160.558 84.9367 155.904 86.0543 149.757C85.8708 147.831 85.6039 145.963 85.2453 144.144C84.945 142.56 84.5697 141.025 84.1527 139.516C83.0519 141.409 81.6591 143.377 80.1162 144.653C80.1162 144.653 81.8509 140.967 83.0185 135.829C81.8175 132.352 80.3247 129.082 78.565 125.988C77.9978 127.848 77.2472 129.75 76.2548 131.167C76.2548 131.167 76.8719 127.806 76.8719 123.178C76.5383 122.652 76.2047 122.119 75.8545 121.601C73.8946 118.749 71.6928 116.072 69.2409 113.562C69.0407 115.672 68.6404 117.915 67.8731 119.65C67.8731 119.65 67.8731 116.097 67.0057 111.393C64.5204 109.108 61.7932 106.998 58.7742 105.08C58.8576 107.115 58.7742 109.267 58.3071 111.018C58.3071 111.018 57.8401 107.874 56.514 103.696C53.8202 102.136 50.9012 100.743 47.7237 99.5172C48.0823 101.202 48.3158 102.937 48.2324 104.454C48.2324 104.454 47.3567 102.028 45.6554 98.7499C43.3619 97.9493 40.9099 97.2654 38.2912 96.6816C35.6307 96.0978 32.8201 95.6057 29.5425 95.4473C28.5167 98.5664 27.9663 101.36 27.566 104.054C27.1656 106.706 26.9321 109.242 26.8571 111.669C29.309 114.437 31.2606 116.122 31.2606 116.122C29.8094 115.655 28.2748 114.821 26.832 113.879C26.832 117.281 27.0989 120.509 27.591 123.586C31.0187 126.322 33.7876 127.881 33.7876 127.881C31.9861 127.698 29.9512 127.006 28.0747 126.188C28.7836 129.691 29.776 132.994 31.0187 136.138C35.1053 138.632 38.4163 139.908 38.4163 139.908C36.5148 139.999 34.2796 139.574 32.2363 138.999C33.7042 142.193 35.4139 145.204 37.3738 148.056C37.7324 148.573 38.1077 149.065 38.483 149.574C42.8031 151.225 46.1641 151.859 46.1641 151.859C44.4794 152.276 42.4445 152.301 40.5013 152.167C42.7614 154.911 45.2801 157.48 48.099 159.849C53.3198 160.599 57.3814 160.299 57.3814 160.299C55.6383 161.291 53.2948 161.875 51.1348 162.234C52.3941 163.16 53.6951 164.06 55.0629 164.911C56.6308 165.887 58.2821 166.813 60.0085 167.672C66.1467 168.831 71.2758 168.455 71.2758 168.455C69.7496 169.323 67.773 169.873 65.8548 170.24C66.3969 170.449 66.9474 170.649 67.5145 170.849C69.8413 171.666 72.3266 172.375 74.9788 172.967C77.6309 173.56 80.4331 174.052 83.694 174.218C84.7032 171.108 85.2453 168.322 85.6456 165.628C86.0459 162.934 86.2711 160.366 86.3378 157.897C86.3545 157.305 86.3629 156.713 86.3629 156.129C85.337 157.789 84.111 159.432 82.7516 160.549V160.558Z" fill="white"/>
</mask>
<g mask="url(#mask0_3056_70096)">
<path d="M74.5128 114.879L73.6621 114.779C73.6621 114.929 72.9365 129.716 63.0786 143.502L55.6811 132.735C65.8225 118.624 64.5548 100.501 64.5465 100.317H63.6958C63.7125 100.509 64.9385 118.123 55.1473 131.951L48.5671 122.377C58.6668 108.165 49.1175 88.1243 49.0174 87.9241L48.2585 88.2744C48.3502 88.4745 57.5659 107.815 48.025 121.593L40.9693 111.326C44.6806 97.2148 35.0479 79.4173 34.9479 79.2422L34.2139 79.6342C34.3057 79.8093 43.4546 96.7145 40.3105 110.367L25.7655 89.2168L25.0817 89.6922L39.6266 110.842C25.7572 108.891 13.2389 94.2959 13.1138 94.1457L12.4883 94.6962C12.6217 94.8546 25.7906 110.217 40.2938 111.801L47.3494 122.068C31.0698 126.038 16.308 110.509 16.1579 110.35L15.5574 110.934C15.7075 111.101 31.0031 127.197 47.8832 122.852L54.4634 132.426C38.0587 136.613 22.0376 129.165 21.8708 129.082L21.5538 129.874C21.7206 129.949 38.1921 137.622 54.9972 133.21L62.3948 143.977C46.0067 148.239 31.9288 143.619 31.787 143.568L31.5702 144.402C31.7119 144.453 46.1735 149.206 62.9285 144.761L68.4913 152.859C52.1116 157.188 39.9685 155.411 39.8434 155.395L39.7767 156.262C39.9018 156.279 52.3367 158.113 69.0334 153.643L75.1049 162.475C61.3773 166.086 51.2108 164.602 51.1108 164.594L51.044 165.461C51.1525 165.478 61.6108 167.012 75.647 163.259L80.7094 170.615C72.0942 172.909 65.7558 172.066 65.689 172.058L65.6307 172.925C65.9059 172.967 72.3193 173.826 81.2431 171.391L91.101 185.727L91.7849 185.252L81.927 170.915C87.398 163.451 88.8909 157.154 88.9493 156.887L88.1153 156.629C88.0986 156.696 86.6224 162.909 81.3932 170.131L76.3309 162.775C84.8627 151.008 87.1729 140.691 87.1979 140.591L86.3639 140.349C86.3389 140.449 84.0871 150.474 75.7971 162L69.7256 153.168C79.8754 139.182 82.6192 126.914 82.6442 126.788L81.8102 126.547C81.7852 126.663 79.0997 138.64 69.1835 152.384L63.6207 144.286C73.7705 130.233 74.5128 115.029 74.5211 114.879H74.5128Z" fill="#E5E5E5"/>
</g>
<path d="M76.8802 123.184C76.5466 122.658 76.213 122.124 75.8627 121.607C73.9028 118.755 71.7011 116.078 69.2491 113.568C69.049 115.678 68.6486 117.921 67.8814 119.656C67.8814 119.656 67.8814 116.103 67.014 111.399C64.5287 109.114 61.8015 107.004 58.7824 105.086C58.8658 107.121 58.7824 109.272 58.3154 111.024C58.3154 111.024 57.8484 107.88 56.5223 103.701C53.8285 102.142 50.9095 100.749 47.732 99.523C48.0906 101.208 48.3241 102.942 48.2407 104.46C48.2407 104.46 47.365 102.033 45.6636 98.7558C43.3701 97.9551 40.9182 97.2712 38.2994 96.6874C35.639 96.1036 32.8284 95.6116 29.5508 95.4531L83.7023 174.216C84.7114 171.105 85.2535 168.32 85.6539 165.626C86.0542 162.932 86.2794 160.363 86.3461 157.895C86.3628 157.302 86.3711 156.71 86.3711 156.127C85.3453 157.786 84.1193 159.429 82.7599 160.547C82.7599 160.547 84.945 155.893 86.0625 149.746C85.879 147.82 85.6122 145.952 85.2535 144.134C84.9533 142.549 84.578 141.014 84.161 139.505C83.0601 141.398 81.6673 143.366 80.1245 144.642C80.1245 144.642 81.8592 140.956 83.0268 135.819C81.8258 132.341 80.333 129.072 78.5732 125.977C78.0061 127.837 77.2555 129.739 76.263 131.157C76.263 131.157 76.8802 127.796 76.8802 123.167V123.184Z" fill="#E5E5E5"/>
<path d="M309.544 233.371C309.544 233.371 314.673 233.704 320.803 232.487C322.53 231.611 324.173 230.669 325.724 229.676C327.092 228.817 328.376 227.9 329.627 226.966C327.467 226.632 325.123 226.065 323.364 225.089C323.364 225.089 327.425 225.356 332.638 224.555C335.431 222.162 337.933 219.576 340.169 216.808C338.225 216.966 336.19 216.958 334.506 216.549C334.506 216.549 337.858 215.89 342.162 214.197C342.529 213.688 342.904 213.188 343.254 212.671C345.189 209.802 346.882 206.775 348.317 203.572C346.273 204.164 344.047 204.614 342.145 204.531C342.145 204.531 345.448 203.222 349.509 200.695C350.719 197.551 351.686 194.231 352.362 190.72C350.494 191.546 348.467 192.255 346.665 192.463C346.665 192.463 349.426 190.879 352.82 188.11C353.279 185.032 353.513 181.805 353.488 178.402C352.053 179.361 350.519 180.203 349.076 180.687C349.076 180.687 351.011 178.986 353.438 176.2C353.337 173.773 353.079 171.238 352.662 168.594C352.237 165.9 351.653 163.115 350.602 160.004C347.324 160.196 344.522 160.704 341.862 161.313C339.251 161.914 336.808 162.623 334.522 163.44C332.846 166.734 331.995 169.17 331.995 169.17C331.895 167.652 332.112 165.917 332.462 164.224C329.302 165.475 326.391 166.901 323.705 168.486C322.413 172.672 321.979 175.825 321.979 175.825C321.495 174.073 321.387 171.93 321.462 169.895C318.46 171.838 315.749 173.973 313.289 176.275C312.472 180.987 312.488 184.54 312.488 184.54C311.704 182.805 311.287 180.57 311.07 178.46C308.635 180.996 306.458 183.689 304.523 186.558C304.173 187.075 303.848 187.609 303.514 188.143C303.564 192.772 304.207 196.124 304.207 196.124C303.197 194.715 302.43 192.83 301.846 190.97C300.12 194.081 298.652 197.367 297.485 200.853C298.702 205.982 300.47 209.652 300.47 209.652C298.911 208.392 297.51 206.433 296.384 204.548C295.983 206.057 295.625 207.6 295.333 209.185C294.999 211.003 294.741 212.871 294.574 214.806C295.741 220.936 297.977 225.573 297.977 225.573C296.617 224.472 295.366 222.837 294.332 221.186C294.332 221.77 294.349 222.354 294.374 222.954C294.465 225.423 294.716 227.991 295.141 230.677C295.566 233.362 296.133 236.148 297.168 239.25C300.429 239.05 303.222 238.533 305.875 237.916C308.527 237.299 310.995 236.573 313.322 235.731C313.881 235.531 314.431 235.322 314.973 235.105C313.055 234.755 311.07 234.221 309.536 233.371H309.544Z" fill="#8C8C8C"/>
<mask id="mask1_3056_70096" style="mask-type:luminance" maskUnits="userSpaceOnUse" x="294" y="160" width="60" height="80">
<path d="M309.54 233.371C309.54 233.371 314.669 233.704 320.799 232.487C322.526 231.611 324.169 230.669 325.72 229.676C327.088 228.817 328.372 227.9 329.623 226.966C327.463 226.632 325.119 226.065 323.36 225.089C323.36 225.089 327.421 225.356 332.634 224.555C335.428 222.162 337.93 219.576 340.165 216.808C338.221 216.966 336.187 216.958 334.502 216.549C334.502 216.549 337.855 215.89 342.158 214.197C342.525 213.688 342.9 213.188 343.25 212.671C345.185 209.802 346.878 206.775 348.313 203.572C346.27 204.164 344.043 204.614 342.141 204.531C342.141 204.531 345.444 203.222 349.505 200.695C350.715 197.551 351.682 194.231 352.358 190.72C350.49 191.546 348.463 192.255 346.662 192.463C346.662 192.463 349.422 190.879 352.816 188.11C353.275 185.032 353.509 181.805 353.484 178.402C352.049 179.361 350.515 180.203 349.072 180.687C349.072 180.687 351.007 178.986 353.434 176.2C353.334 173.773 353.075 171.238 352.658 168.594C352.233 165.9 351.649 163.115 350.598 160.004C347.32 160.196 344.518 160.704 341.858 161.313C339.247 161.914 336.804 162.623 334.519 163.44C332.842 166.734 331.992 169.17 331.992 169.17C331.891 167.652 332.108 165.917 332.459 164.224C329.298 165.475 326.387 166.901 323.702 168.486C322.409 172.672 321.975 175.825 321.975 175.825C321.491 174.073 321.383 171.93 321.458 169.895C318.456 171.838 315.745 173.973 313.285 176.275C312.468 180.987 312.484 184.54 312.484 184.54C311.7 182.805 311.283 180.57 311.066 178.46C308.631 180.996 306.454 183.689 304.52 186.558C304.169 187.075 303.844 187.609 303.51 188.143C303.56 192.772 304.203 196.124 304.203 196.124C303.194 194.715 302.426 192.83 301.842 190.97C300.116 194.081 298.648 197.367 297.481 200.853C298.698 205.982 300.466 209.652 300.466 209.652C298.907 208.392 297.506 206.433 296.38 204.548C295.979 206.057 295.621 207.6 295.329 209.185C294.995 211.003 294.737 212.871 294.57 214.806C295.738 220.936 297.973 225.573 297.973 225.573C296.613 224.472 295.362 222.837 294.328 221.186C294.328 221.77 294.345 222.354 294.37 222.954C294.462 225.423 294.712 227.991 295.137 230.677C295.562 233.362 296.13 236.148 297.164 239.25C300.425 239.05 303.219 238.533 305.871 237.916C308.523 237.299 310.991 236.573 313.318 235.731C313.877 235.531 314.427 235.322 314.97 235.105C313.051 234.755 311.066 234.221 309.532 233.371H309.54Z" fill="white"/>
</mask>
<g mask="url(#mask1_3056_70096)">
<path d="M349.035 208.976L348.81 208.142C348.668 208.192 334.648 212.937 318.21 208.817L325.516 197.992C342.354 202.262 358.759 194.439 358.926 194.364L358.609 193.572C358.451 193.647 342.505 201.244 326.05 197.2L332.547 187.567C349.468 191.762 364.614 175.524 364.772 175.357L364.172 174.782C364.022 174.94 349.402 190.594 333.089 186.775L340.053 176.441C354.547 174.723 367.575 159.244 367.708 159.086L367.074 158.544C366.949 158.694 354.564 173.397 340.711 175.474L355.065 154.199L354.372 153.732L340.019 175.007C336.75 161.379 345.749 144.391 345.841 144.216L345.098 143.832C344.998 144.016 335.532 161.896 339.369 175.974L332.405 186.308C322.747 172.613 331.788 153.189 331.879 152.989L331.12 152.647C331.02 152.848 321.646 172.972 331.879 187.1L325.383 196.733C315.475 182.997 316.542 165.366 316.55 165.182H315.7C315.683 165.366 314.582 183.505 324.849 197.517L317.543 208.342C307.577 194.656 306.718 179.861 306.709 179.719L305.859 179.827C305.859 179.978 306.743 195.173 317.018 209.134L311.521 217.282C301.488 203.63 298.695 191.679 298.67 191.553L297.836 191.804C297.861 191.929 300.713 204.172 310.988 218.066L304.991 226.948C296.601 215.498 294.258 205.498 294.233 205.398L293.399 205.648C293.424 205.748 295.826 216.048 304.458 227.732L299.462 235.138C294.166 227.957 292.631 221.761 292.615 221.694L291.781 221.953C291.847 222.22 293.39 228.508 298.928 235.922L289.195 250.35L289.888 250.817L299.62 236.389C308.569 238.741 314.974 237.824 315.249 237.782L315.183 236.915C315.116 236.923 308.794 237.824 300.154 235.605L305.15 228.199C319.219 231.827 329.669 230.201 329.769 230.176L329.694 229.309C329.594 229.325 319.436 230.893 305.683 227.407L311.68 218.525C328.41 222.845 340.828 220.902 340.953 220.885L340.878 220.018C340.753 220.034 328.627 221.928 312.214 217.741L317.71 209.593C334.506 213.888 348.918 209.009 349.068 208.959L349.035 208.976Z" fill="#E5E5E5"/>
</g>
<path d="M342.171 214.213C342.537 213.704 342.913 213.204 343.263 212.687C345.198 209.818 346.891 206.79 348.325 203.588C346.282 204.18 344.055 204.63 342.154 204.547C342.154 204.547 345.456 203.237 349.518 200.71C350.727 197.566 351.695 194.247 352.37 190.736C350.502 191.561 348.476 192.27 346.674 192.479C346.674 192.479 349.435 190.894 352.829 188.125C353.288 185.048 353.521 181.82 353.496 178.418C352.062 179.377 350.527 180.219 349.084 180.703C349.084 180.703 351.019 179.001 353.446 176.216C353.346 173.789 353.088 171.253 352.671 168.61C352.245 165.916 351.661 163.13 350.611 160.02L297.168 239.258C300.429 239.058 303.223 238.54 305.875 237.923C308.527 237.306 310.996 236.581 313.323 235.738C313.881 235.538 314.432 235.33 314.974 235.113C313.056 234.762 311.071 234.229 309.536 233.378C309.536 233.378 314.665 233.712 320.795 232.494C322.522 231.618 324.164 230.676 325.716 229.683C327.083 228.824 328.368 227.907 329.619 226.973C327.459 226.639 325.115 226.072 323.356 225.096C323.356 225.096 327.417 225.363 332.63 224.563C335.423 222.169 337.925 219.584 340.161 216.815C338.217 216.973 336.182 216.965 334.498 216.556C334.498 216.556 337.85 215.897 342.154 214.204L342.171 214.213Z" fill="#E5E5E5"/>
<path d="M314.434 63.1523H71.3398V281.226H314.434V63.1523Z" fill="#FFFEFE"/>
<path d="M314.434 63.1523H71.3398V88.9396H314.434V63.1523Z" fill="#8C8C8C"/>
<path d="M90.9587 76.0458C90.9587 78.7813 88.7402 80.9997 86.0047 80.9997C83.2692 80.9997 81.0508 78.7813 81.0508 76.0458C81.0508 73.3102 83.2692 71.0918 86.0047 71.0918C88.7402 71.0918 90.9587 73.3102 90.9587 76.0458Z" fill="#8C8C8C"/>
<path d="M278.818 163.396C279.986 160.444 278.334 158.025 275.165 158.025H158.155C154.978 158.025 151.433 160.444 150.266 163.396L124.328 229.174C123.161 232.126 124.812 234.545 127.981 234.545H244.991C248.169 234.545 251.713 232.126 252.881 229.174L278.818 163.396Z" fill="#E5E5E5"/>
<path d="M118.715 223.562L144.652 157.785C145.82 154.832 149.364 152.414 152.542 152.414H244.399V146.584C244.399 143.406 241.805 140.813 238.627 140.813H197.653C194.475 140.813 190.639 138.528 189.129 135.742L183.55 125.467C182.032 122.673 178.196 120.396 175.027 120.396H122.385C119.207 120.396 116.613 122.99 116.613 126.168V223.162C116.613 225.947 118.615 228.291 121.259 228.825C118.84 228.316 117.714 226.148 118.732 223.57L118.715 223.562Z" fill="#E5E5E5"/>
<path d="M203.731 176.23C191.68 176.23 181.914 185.997 181.914 198.048C181.914 210.099 191.68 219.865 203.731 219.865C215.783 219.865 225.549 210.099 225.549 198.048C225.549 185.997 215.783 176.23 203.731 176.23ZM214.407 205.571L211.262 208.715L203.731 201.184L196.2 208.715L193.056 205.571L200.587 198.04L193.056 190.509L196.2 187.364L203.731 194.895L211.262 187.364L214.407 190.509L206.876 198.04L214.407 205.571Z" fill="#FFFEFE"/>
<path d="M67.7822 292.346C102.719 292.346 131.041 287.72 131.041 282.013C131.041 276.306 102.719 271.68 67.7822 271.68C32.8454 271.68 4.52344 276.306 4.52344 282.013C4.52344 287.72 32.8454 292.346 67.7822 292.346Z" fill="#FFFEFE"/>
<path d="M85.5621 152.178H50.0004L22.6953 279.754C45.3384 284.633 67.7813 284.633 67.7813 284.633C67.7813 284.633 90.2242 284.633 112.867 279.754L85.5621 152.178Z" fill="#8C8C8C"/>
<path d="M67.7848 154.888C77.6048 154.888 85.5656 153.674 85.5656 152.177C85.5656 150.68 77.6048 149.467 67.7848 149.467C57.9647 149.467 50.0039 150.68 50.0039 152.177C50.0039 153.674 57.9647 154.888 67.7848 154.888Z" fill="#8C8C8C"/>
<mask id="mask2_3056_70096" style="mask-type:luminance" maskUnits="userSpaceOnUse" x="22" y="152" width="91" height="133">
<path d="M85.5582 152.178H49.9965L22.6914 279.754C45.3345 284.633 67.7774 284.633 67.7774 284.633C67.7774 284.633 90.2203 284.633 112.863 279.754L85.5582 152.178Z" fill="white"/>
</mask>
<g mask="url(#mask2_3056_70096)">
<path d="M67.003 274.141C30.3988 274.141 5.67909 268.019 4.14453 267.635L9.24026 247.578L6.69657 257.602L9.23192 247.569C9.75734 247.703 62.5161 260.63 126.901 247.461L131.046 267.735C107.602 272.531 85.7513 274.132 67.0113 274.132L67.003 274.141Z" fill="#FFFEFE"/>
<path d="M67.003 229.121C30.3988 229.121 5.67909 222.999 4.14453 222.616L9.24026 202.558L6.69657 212.583L9.23192 202.55C9.75734 202.683 62.5161 215.61 126.901 202.441L131.046 222.716C107.602 227.511 85.7513 229.113 67.0113 229.113L67.003 229.121Z" fill="#FFFEFE"/>
<path d="M67.003 184.101C30.3988 184.101 5.67909 177.98 4.14453 177.596L9.24026 157.539L6.69657 167.563L9.23192 157.53C9.75734 157.664 62.5161 170.591 126.901 157.422L131.046 177.696C107.602 182.492 85.7513 184.093 67.0113 184.093L67.003 184.101Z" fill="#FFFEFE"/>
</g>
<path opacity="0.5" d="M90.0099 213.735C90.0099 241.474 84.272 266.527 75.0312 284.425C83.463 284.041 98.1163 282.932 112.87 279.754L85.5646 152.178H79.1929C85.9566 169.041 90.0099 190.442 90.0099 213.735Z" fill="#E5E5E5"/>
<g opacity="0.3">
<path d="M51.9348 171.86C51.2842 174.996 50.6337 178.132 49.9832 181.268C48.4236 188.799 46.864 196.33 45.2961 203.861C43.3946 213.018 41.5014 222.167 39.5999 231.325C37.9653 239.206 36.3306 247.079 34.7043 254.96C33.912 258.771 32.9363 262.6 32.3191 266.444C32.3108 266.494 32.2941 266.553 32.2858 266.603C31.6352 269.755 36.5475 270.648 37.198 267.503C37.8485 264.368 38.499 261.232 39.1496 258.096C40.7091 250.565 42.2687 243.034 43.8366 235.503C45.7381 226.346 47.6313 217.197 49.5328 208.039C51.1675 200.158 52.8021 192.285 54.4284 184.404C55.2207 180.592 56.1965 176.764 56.8136 172.92C56.822 172.87 56.8387 172.811 56.847 172.761C57.4975 169.609 52.5853 168.716 51.9348 171.86Z" fill="#FFFEFE"/>
</g>
<path d="M301.289 246.995L183.367 280.652L185.434 287.894L303.356 254.236L301.289 246.995Z" fill="#8C8C8C"/>
<path d="M301.284 246.996L247.512 262.344L249.579 269.586L303.351 254.238L301.284 246.996Z" fill="#8C8C8C"/>
<path d="M305.542 288.186C326.314 286.42 341.721 268.149 339.955 247.377C338.189 226.605 319.918 211.198 299.146 212.964C278.374 214.73 262.967 233.001 264.733 253.773C266.499 274.545 284.77 289.952 305.542 288.186Z" fill="#8C8C8C"/>
<path d="M330.094 262.978C336.927 247.652 330.042 229.689 314.716 222.856C299.391 216.023 281.428 222.907 274.595 238.233C267.762 253.559 274.646 271.522 289.972 278.355C305.298 285.188 323.261 278.303 330.094 262.978Z" fill="#E5E5E5"/>
<path d="M325.173 244.068L321.554 245.102C318.526 234.502 307.442 228.347 296.851 231.366L295.816 227.747C308.41 224.152 321.587 231.475 325.182 244.068H325.173Z" fill="#FFFEFE"/>
<path d="M274.202 61.781L238.073 50.8223L216.348 122.488L272.492 139.501L288.313 87.293L274.202 61.781Z" fill="#E5E5E5"/>
<path d="M270.557 90.1027L267.972 85.2738L256.404 91.4621L250.216 79.8945L245.387 82.4716L251.575 94.0391L240.008 100.227L242.593 105.056L254.161 98.868L260.341 110.436L265.17 107.85L258.99 96.2826L270.557 90.1027Z" fill="#FFFEFE"/>
<path d="M178.324 12.709L141.645 21.6494L159.367 94.3991L216.362 80.5131L203.452 27.5041L178.324 12.709Z" fill="#E5E5E5"/>
<path d="M189.584 38.9553L184.906 36.1113L178.092 47.3203L166.883 40.5065L164.039 45.1852L175.248 51.999L168.426 63.2079L173.105 66.0519L179.918 54.8429L191.127 61.6567L193.971 56.978L182.771 50.1642L189.584 38.9553Z" fill="#FFFEFE"/>
<path d="M306.866 19.2655H297.534V9.94141H294.223V19.2655H284.898V22.5848H294.223V31.9089H297.534V22.5848H306.866V19.2655Z" fill="#8C8C8C"/>
<path d="M327.749 51.3505H322.67V46.2715H320.86V51.3505H315.781V53.152H320.86V58.231H322.67V53.152H327.749V51.3505Z" fill="#8C8C8C"/>
<path d="M271.694 42.4845H265.539V36.3379H263.354V42.4845H257.207V44.6779H263.354V50.8244H265.539V44.6779H271.694V42.4845Z" fill="#8C8C8C"/>
<path d="M38.8347 41.5253H29.5106V32.2012H26.1913V41.5253H16.8672V44.8446H26.1913V54.1687H29.5106V44.8446H38.8347V41.5253Z" fill="#8C8C8C"/>
<path d="M79.5343 35.9619H74.4552V30.8828H72.6455V35.9619H67.5664V37.7716H72.6455V42.8507H74.4552V37.7716H79.5343V35.9619Z" fill="#8C8C8C"/>
<path d="M48.6116 77.379H42.465V71.2324H40.2716V77.379H34.125V79.5724H40.2716V85.719H42.465V79.5724H48.6116V77.379Z" fill="#8C8C8C"/>
<path d="M252.818 3.82882C252.818 4.94638 251.909 5.8471 250.8 5.8471C249.69 5.8471 248.781 4.93804 248.781 3.82882C248.781 2.71961 249.682 1.81055 250.8 1.81055C251.917 1.81055 252.818 2.71961 252.818 3.82882Z" fill="#8C8C8C"/>
<path d="M344.098 76.5116C344.098 78.6217 342.388 80.3397 340.269 80.3397C338.151 80.3397 336.441 78.63 336.441 76.5116C336.441 74.3933 338.151 72.6836 340.269 72.6836C342.388 72.6836 344.098 74.3933 344.098 76.5116Z" fill="#8C8C8C"/>
<path d="M222.923 24.9109C222.923 26.0284 222.014 26.9291 220.905 26.9291C219.796 26.9291 218.887 26.0201 218.887 24.9109C218.887 23.8016 219.787 22.8926 220.905 22.8926C222.023 22.8926 222.923 23.8016 222.923 24.9109Z" fill="#8C8C8C"/>
<path d="M107.808 3.82805C107.808 5.93807 106.099 7.65611 103.98 7.65611C101.862 7.65611 100.152 5.94641 100.152 3.82805C100.152 1.7097 101.862 0 103.98 0C106.099 0 107.808 1.7097 107.808 3.82805Z" fill="#8C8C8C"/>
<path d="M122.677 44.4109C122.677 45.5284 121.768 46.4291 120.659 46.4291C119.55 46.4291 118.641 45.5201 118.641 44.4109C118.641 43.3016 119.541 42.3926 120.659 42.3926C121.776 42.3926 122.677 43.3016 122.677 44.4109Z" fill="#8C8C8C"/>
<path d="M4.55999 83.5573C4.55999 84.6749 3.65093 85.5756 2.54171 85.5756C1.4325 85.5756 0.523438 84.6666 0.523438 83.5573C0.523438 82.4481 1.42416 81.5391 2.54171 81.5391C3.65927 81.5391 4.55999 82.4481 4.55999 83.5573Z" fill="#8C8C8C"/>
</svg>
