<svg width="32" height="32" viewBox="0 0 32 32" fill="none" xmlns="http://www.w3.org/2000/svg">
<path d="M16.0037 10.3333C14.9428 10.3333 13.9254 10.7548 13.1752 11.5049C12.4251 12.255 12.0037 13.2725 12.0037 14.3333C12.0037 15.3942 12.4251 16.4116 13.1752 17.1618C13.9254 17.9119 14.9428 18.3333 16.0037 18.3333C17.0645 18.3333 18.082 17.9119 18.8321 17.1618C19.5822 16.4116 20.0037 15.3942 20.0037 14.3333C20.0037 13.2725 19.5822 12.255 18.8321 11.5049C18.082 10.7548 17.0645 10.3333 16.0037 10.3333ZM13.6703 14.3333C13.6703 13.7145 13.9162 13.121 14.3538 12.6834C14.7913 12.2458 15.3848 12 16.0037 12C16.6225 12 17.216 12.2458 17.6536 12.6834C18.0912 13.121 18.337 13.7145 18.337 14.3333C18.337 14.9522 18.0912 15.5457 17.6536 15.9832C17.216 16.4208 16.6225 16.6667 16.0037 16.6667C15.3848 16.6667 14.7913 16.4208 14.3538 15.9832C13.9162 15.5457 13.6703 14.9522 13.6703 14.3333ZM24.667 21.3333L17.9417 28.4733C17.6924 28.7381 17.3915 28.949 17.0577 29.0932C16.7238 29.2374 16.364 29.3118 16.0003 29.3118C15.6367 29.3118 15.2769 29.2374 14.943 29.0932C14.6092 28.949 14.3083 28.7381 14.059 28.4733L7.33368 21.3333H7.35901L7.34768 21.32L7.33368 21.3033C5.60737 19.2618 4.66231 16.6735 4.66701 14C4.66701 7.74066 9.74101 2.66666 16.0003 2.66666C22.2597 2.66666 27.3337 7.74066 27.3337 14C27.3384 16.6735 26.3933 19.2618 24.667 21.3033L24.653 21.32L24.6417 21.3333H24.667ZM23.3717 20.254C24.8572 18.5092 25.6712 16.2915 25.667 14C25.667 8.66132 21.339 4.33332 16.0003 4.33332C10.6617 4.33332 6.33368 8.66132 6.33368 14C6.32951 16.2915 7.14346 18.5092 8.62901 20.254L8.83434 20.496L15.2723 27.33C15.3658 27.4293 15.4787 27.5084 15.6038 27.5624C15.729 27.6165 15.864 27.6444 16.0003 27.6444C16.1367 27.6444 16.2716 27.6165 16.3968 27.5624C16.522 27.5084 16.6348 27.4293 16.7283 27.33L23.1663 20.496L23.3717 20.254Z" fill="black"/>
</svg>
