<svg width="524" height="89" viewBox="0 0 524 89" fill="none" xmlns="http://www.w3.org/2000/svg">
<g clip-path="url(#clip0_534_727)">
<path d="M38.094 59.8269C41.2477 46.232 55.1448 36.6628 56.8984 37.7438C58.652 38.8247 57.7717 43.6682 57.7717 43.6682C68.9518 36.1293 66.0753 26.7334 66.0753 26.7334C43.0359 25.2505 38.094 59.8269 38.094 59.8269Z" fill="white"/>
<path d="M65.4238 47.7978C61.9443 46.4536 57.9589 46.7377 54.4933 48.1304C51.0346 49.5232 48.0611 51.9553 45.6075 54.7685C42.7241 58.0737 40.4506 62.0441 39.8476 66.3818C39.2377 70.7194 40.4853 75.4451 43.6944 78.4315C45.6976 80.2954 48.4007 81.4041 51.1386 81.4803C53.8764 81.5565 56.8638 81.0715 59.054 78.965C62.277 75.8677 63.1712 67.8507 54.8537 65.3701C55.4013 65.6195 56.3093 66.1185 57.1064 67.0747C57.4391 67.4766 58.9085 69.3613 58.4718 71.8488C58.0351 74.3503 56.0043 75.6114 55.4706 75.944C52.2892 77.9118 47.3333 76.7755 45.3372 73.6088C43.8955 71.3222 44.0687 68.3981 44.852 65.8066C46.5224 60.2703 55.8033 54.4706 62.9009 56.6186C67.115 57.8936 68.3211 61.5383 67.6071 65.3701C68.3626 64.9682 70.9272 63.4923 72.0431 60.388C73.9146 55.1704 70.2895 49.6756 65.4238 47.7909V47.7978Z" fill="white"/>
<path d="M36.1948 71.9736C36.1948 71.9736 35.3353 75.8401 33.8313 78.3831C32.3272 80.9261 31.6479 85.9705 36.1948 88.8391C40.7417 85.9774 40.0555 80.933 38.5584 78.3831C37.0543 75.8401 36.1948 71.9736 36.1948 71.9736Z" fill="white"/>
<path d="M28.6952 21.7305C34.566 27.3292 36.1879 50.8744 36.1879 50.8744C36.1879 50.8744 37.8098 27.3292 43.6805 21.7305C43.6112 22.0077 41.6081 29.8514 42.8834 35.9976C45.9748 24.4467 53.0793 15.6329 53.0793 15.6329C48.6433 15.2933 43.9647 19.3192 43.9647 19.3192C44.1449 8.49585 36.1879 0.672852 36.1879 0.672852C36.1879 0.672852 28.2309 8.48892 28.4111 19.3192C28.4111 19.3192 23.7325 15.2933 19.2965 15.6329C19.2965 15.6329 26.401 24.4467 29.4923 35.9976C30.7677 29.8584 28.7646 22.0146 28.6952 21.7305ZM36.1948 13.5888C37.5118 13.5888 38.5168 14.7598 38.3088 16.0555L37.4424 21.7166L36.1948 29.8514L34.9472 21.7305L34.0808 16.0555C33.8798 14.7598 34.8779 13.5888 36.1948 13.5888Z" fill="white"/>
<path d="M14.6111 43.675C14.6111 43.675 13.7308 38.8246 15.4844 37.7506C17.238 36.6697 31.1282 46.2388 34.2888 59.8338C34.2888 59.8338 29.3469 25.2574 6.30749 26.7402C6.30749 26.7402 3.4241 36.1361 14.6111 43.675Z" fill="white"/>
<path d="M26.7753 54.7685C24.3217 51.9553 21.3482 49.5232 17.8895 48.1304C14.4308 46.7377 10.4384 46.4536 6.95897 47.7978C2.09326 49.6825 -1.53177 55.1773 0.339663 60.395C1.44866 63.4923 4.02014 64.9751 4.77564 65.377C4.06173 61.5521 5.26776 57.9005 9.48194 56.6255C16.5795 54.4844 25.8604 60.2772 27.5308 65.8136C28.3141 68.4051 28.4873 71.3222 27.0456 73.6158C25.0564 76.7755 20.0936 77.9188 16.9122 75.9509C16.3785 75.6252 14.3477 74.3641 13.911 71.8558C13.4743 69.3682 14.9437 67.4835 15.2764 67.0816C16.0666 66.1254 16.9815 65.6196 17.5291 65.377C9.21162 67.8507 10.0988 75.8747 13.3288 78.972C15.519 81.0715 18.5064 81.5635 21.2442 81.4873C23.982 81.411 26.6783 80.3024 28.6883 78.4385C31.8975 75.452 33.1451 70.7332 32.5352 66.3887C31.9252 62.051 29.6587 58.0737 26.7753 54.7755V54.7685Z" fill="white"/>
<path d="M134.272 29.5328C132.005 27.1076 129.239 25.1813 125.989 23.74C122.738 22.2988 119.03 21.5781 114.857 21.5781C110.685 21.5781 106.976 22.2988 103.726 23.74C100.475 25.1813 97.7163 27.1145 95.4428 29.5328C93.1763 31.958 91.4574 34.6811 90.2929 37.7161C89.1285 40.751 88.5463 43.8345 88.5463 46.9595V48.6156C88.5463 51.7406 89.1146 54.8102 90.2513 57.8106C91.3881 60.8178 93.0724 63.5271 95.3111 65.9523C97.5499 68.3775 100.295 70.3246 103.545 71.7936C106.796 73.2625 110.567 74.004 114.864 74.004C119.161 74.004 122.932 73.2695 126.183 71.7936C129.434 70.3246 132.178 68.3775 134.417 65.9523C136.656 63.534 138.34 60.8178 139.477 57.8106C140.614 54.8102 141.182 51.7406 141.182 48.6156V46.9595C141.182 43.8345 140.6 40.751 139.435 37.7161C138.271 34.6811 136.552 31.951 134.285 29.5328H134.272ZM130.272 57.083C128.893 59.8408 126.897 62.0373 124.291 63.6588C121.684 65.2871 118.538 66.0978 114.857 66.0978C111.177 66.0978 108.03 65.2871 105.424 63.6588C102.818 62.0373 100.821 59.8408 99.4421 57.083C98.0628 54.3252 97.3697 51.2279 97.3697 47.791C97.3697 44.3542 98.0767 41.1668 99.4837 38.409C100.891 35.6512 102.915 33.4755 105.555 31.8818C108.189 30.2881 111.288 29.4912 114.85 29.4912C118.413 29.4912 121.58 30.2881 124.187 31.8818C126.793 33.4755 128.803 35.6512 130.21 38.409C131.617 41.1668 132.324 44.2988 132.324 47.791C132.324 51.2833 131.631 54.3183 130.251 57.083H130.272Z" fill="white"/>
<path d="M167.86 65.3561H165.892L151.849 23.2339H142.644L159.39 72.3476H161.601H165.829H168.221H172.268H174.202L188.737 23.2339H180.094L167.86 65.3561Z" fill="white"/>
<path d="M228.349 25.0288C224.883 22.7284 220.482 21.5781 215.145 21.5781C211.035 21.5781 207.465 22.2988 204.429 23.74C201.393 25.1813 198.891 27.1145 196.929 29.5328C194.968 31.958 193.512 34.6673 192.563 37.6745C191.613 40.6818 191.135 43.7791 191.135 46.9665V48.6225C191.135 51.7476 191.606 54.8172 192.563 57.8175C193.512 60.8247 194.968 63.534 196.929 65.9592C198.891 68.3844 201.435 70.3315 204.568 71.8005C207.694 73.2695 211.409 74.0109 215.699 74.0109C219.567 74.0109 223.026 73.3665 226.096 72.0777C229.16 70.7888 231.71 68.918 233.734 66.4651C235.758 64.0122 237.11 61.1019 237.782 57.7274H229.499C229.007 60.0002 227.552 61.9888 225.126 63.7073C222.7 65.4257 219.56 66.2849 215.692 66.2849C211.825 66.2849 208.976 65.4742 206.585 63.8459C204.193 62.2244 202.426 60.014 201.296 57.2216C200.34 54.8796 199.799 52.288 199.647 49.4471H238.607V45.4906C238.607 41.3816 237.761 37.5221 236.077 33.8981C234.386 30.2811 231.814 27.3224 228.349 25.0219V25.0288ZM206.453 31.6947C208.754 30.101 211.651 29.3041 215.145 29.3041C218.638 29.3041 221.307 30.0109 223.518 31.4175C225.729 32.831 227.378 34.8058 228.487 37.3488C229.194 38.9772 229.673 40.8065 229.929 42.8229H200.007C200.291 41.1737 200.721 39.6424 201.303 38.2219C202.44 35.4641 204.152 33.2884 206.453 31.6947Z" fill="white"/>
<path d="M257.883 27.6963C255.596 30.1146 254.147 33.5375 253.509 37.9583V23.2409H246.516V72.3546H255.346V45.7744C255.346 40.8686 256.663 37.113 259.304 34.5076C261.938 31.9023 265.715 30.5996 270.622 30.5996H273.748V22.6865H272.092C265.771 22.6865 261.037 24.3564 257.876 27.6963H257.883Z" fill="white"/>
<path d="M344.87 24.426C342.291 22.6452 339.075 21.7583 335.207 21.7583H334.84C330.973 21.7583 327.77 22.6452 325.227 24.426C322.683 26.2068 320.763 28.7637 319.474 32.1035C319.245 32.6925 319.051 33.3092 318.864 33.9397C318.683 33.3092 318.496 32.6855 318.281 32.1035C317.055 28.7637 315.169 26.1999 312.626 24.426C310.082 22.6452 306.873 21.7583 303.012 21.7583H302.645C298.777 21.7583 295.589 22.6452 293.08 24.426C290.564 26.2068 288.678 28.7637 287.424 32.1035C287.126 32.8934 286.869 33.7249 286.64 34.5911V23.2273H279.647V72.341H288.477V42.906C288.477 38.797 289.579 35.5958 291.79 33.2953C294.001 30.9948 296.913 29.8446 300.531 29.8446C304.149 29.8446 306.755 30.9325 308.716 33.1082C310.678 35.284 311.662 38.3674 311.662 42.3517V72.3341H320.493V42.8991C320.493 38.7901 321.595 35.5889 323.806 33.2884C326.017 30.9879 328.928 29.8377 332.546 29.8377C336.164 29.8377 338.77 30.9255 340.732 33.1013C342.693 35.277 343.677 38.3605 343.677 42.3448V72.3271H352.508V44.278C352.508 39.4969 351.877 35.4364 350.622 32.0896C349.361 28.7498 347.448 26.186 344.87 24.4122V24.426Z" fill="white"/>
<path d="M406.142 29.5328C403.868 27.1076 401.11 25.1813 397.859 23.74C394.608 22.2988 390.9 21.5781 386.727 21.5781C382.555 21.5781 378.847 22.2988 375.596 23.74C372.345 25.1813 369.587 27.1145 367.313 29.5328C365.047 31.958 363.328 34.6811 362.163 37.7161C360.999 40.751 360.417 43.8345 360.417 46.9595V48.6156C360.417 51.7406 360.985 54.8102 362.122 57.8106C363.258 60.8178 364.943 63.5271 367.181 65.9523C369.42 68.3775 372.165 70.3246 375.416 71.7936C378.666 73.2625 382.437 74.004 386.734 74.004C391.032 74.004 394.802 73.2695 398.053 71.7936C401.304 70.3246 404.049 68.3775 406.287 65.9523C408.526 63.534 410.21 60.8178 411.347 57.8106C412.484 54.8102 413.052 51.7406 413.052 48.6156V46.9595C413.052 43.8345 412.47 40.751 411.306 37.7161C410.141 34.6811 408.422 31.951 406.156 29.5328H406.142ZM402.142 57.083C400.763 59.8408 398.767 62.0373 396.161 63.6588C393.555 65.2871 390.408 66.0978 386.727 66.0978C383.047 66.0978 379.9 65.2871 377.294 63.6588C374.688 62.0373 372.692 59.8408 371.312 57.083C369.933 54.3252 369.24 51.2279 369.24 47.791C369.24 44.3542 369.947 41.1668 371.354 38.409C372.761 35.6512 374.792 33.4755 377.426 31.8818C380.06 30.2881 383.158 29.4912 386.72 29.4912C390.283 29.4912 393.451 30.2881 396.057 31.8818C398.663 33.4755 400.673 35.6512 402.08 38.409C403.494 41.1668 404.194 44.2988 404.194 47.791C404.194 51.2833 403.501 54.3183 402.122 57.083H402.142Z" fill="white"/>
<path d="M459.318 30.6552C457.412 27.641 455.02 25.3891 452.144 23.9201C449.073 22.3541 445.67 21.578 441.934 21.578C438.198 21.578 435.142 22.2363 432.231 23.5528C429.319 24.8694 426.803 26.6987 424.689 29.0269C422.575 31.355 420.933 34.0574 419.768 37.1201C418.604 40.1897 418.022 43.4672 418.022 46.9595V48.6155C418.022 52.1702 418.618 55.4823 419.817 58.5519C421.016 61.6215 422.7 64.3169 424.877 66.6451C427.053 68.9733 429.618 70.7818 432.556 72.0706C435.502 73.3595 438.718 74.0039 442.219 74.0039C445.719 74.0039 449.226 73.2209 452.387 71.6618C455.547 70.0958 458.167 67.5875 460.254 64.1229C460.586 63.5686 460.884 62.9796 461.175 62.3699V72.3547H468.169V5.21143H459.339V30.6621L459.318 30.6552ZM459.685 49.447C459.685 52.8839 458.95 55.8703 457.474 58.4133C456.005 60.9563 454.036 62.9034 451.583 64.2546C449.129 65.6058 446.398 66.2779 443.397 66.2779C440.208 66.2779 437.353 65.5295 434.844 64.0259C432.328 62.5223 430.366 60.3812 428.952 57.5888C427.538 54.7963 426.838 51.5327 426.838 47.791C426.838 44.0492 427.531 40.7995 428.911 38.0417C430.29 35.2839 432.224 33.1358 434.705 31.6045C437.186 30.0732 440.056 29.304 443.307 29.304C446.252 29.304 448.963 29.9346 451.451 31.1888C453.932 32.4429 455.928 34.2584 457.433 36.6143C458.937 38.9771 459.685 41.8388 459.685 45.2133V49.447Z" fill="white"/>
<path d="M524.27 45.4907C524.27 41.3817 523.425 37.5222 521.74 33.8982C520.056 30.2812 517.478 27.3225 514.012 25.022C510.546 22.7215 506.145 21.5713 500.808 21.5713C496.698 21.5713 493.128 22.2919 490.092 23.7332C487.057 25.1744 484.554 27.1077 482.593 29.5259C480.631 31.9511 479.176 34.6604 478.226 37.6677C477.277 40.6749 476.798 43.7722 476.798 46.9596V48.6157C476.798 51.7407 477.27 54.8103 478.226 57.8107C479.176 60.8179 480.631 63.5272 482.593 65.9524C484.554 68.3776 487.098 70.3247 490.231 71.7937C493.357 73.2626 497.072 74.0041 501.363 74.0041C505.23 74.0041 508.689 73.3596 511.759 72.0708C514.823 70.782 517.374 68.9111 519.398 66.4582C521.422 64.0053 522.773 61.0951 523.445 57.7206H515.163C514.671 59.9934 513.215 61.982 510.796 63.7004C508.37 65.4188 505.23 66.2781 501.363 66.2781C497.495 66.2781 494.646 65.4674 492.255 63.839C489.864 62.2176 488.096 60.0072 486.966 57.2148C486.01 54.8727 485.469 52.2812 485.317 49.4403H524.277V45.4837L524.27 45.4907ZM492.116 31.6948C494.417 30.1011 497.315 29.3042 500.808 29.3042C504.301 29.3042 506.97 30.011 509.181 31.4176C511.392 32.8311 513.049 34.8059 514.151 37.3489C514.858 38.9773 515.336 40.8066 515.592 42.8229H485.67C485.954 41.1738 486.384 39.6425 486.966 38.222C488.103 35.4642 489.815 33.2885 492.116 31.6948Z" fill="white"/>
</g>
<defs>
<clipPath id="clip0_534_727">
<rect width="524" height="88" fill="white" transform="translate(0 0.589844)"/>
</clipPath>
</defs>
</svg>
