<svg width="153" height="23" viewBox="0 0 118 18" fill="none" xmlns="http://www.w3.org/2000/svg">
<g clip-path="url(#clip0_1_32040)">
<path d="M0.0429688 16.7257C0.292156 16.8088 0.552567 16.8533 0.815203 16.8578C0.93123 16.8659 1.04769 16.8505 1.15765 16.8126C1.26762 16.7747 1.36884 16.7151 1.45529 16.6373C1.53988 16.5455 1.605 16.4375 1.64673 16.3198C1.68846 16.2021 1.70594 16.0772 1.69811 15.9526V2.26633C1.70713 2.14525 1.69013 2.02364 1.64825 1.90967C1.60637 1.79571 1.54057 1.69203 1.45529 1.6056C1.37297 1.5217 1.27359 1.45645 1.16387 1.41428C1.05415 1.3721 0.936658 1.35397 0.819332 1.36113C0.555394 1.36467 0.293561 1.40868 0.0429688 1.49162V0.942387H6.86423C8.09493 0.932655 9.30356 1.26923 10.3521 1.91367C11.4366 2.57195 12.3159 3.51988 12.891 4.65076C13.5246 5.89362 13.8431 7.27317 13.8185 8.66803C13.8279 10.1415 13.5034 11.598 12.8695 12.9281C12.3056 14.1866 11.4318 15.2815 10.3298 16.1104C9.33284 16.8698 8.11417 17.2809 6.86093 17.2807H0.0429688V16.7257ZM6.37859 16.9024C7.29546 16.8775 8.18519 16.5859 8.93894 16.0633C9.90304 15.4114 10.6734 14.5114 11.1689 13.4584C11.8152 12.071 12.1264 10.5512 12.0774 9.02152C12.0887 7.70634 11.8178 6.40404 11.2829 5.20247C10.8302 4.0944 10.1097 3.11593 9.18589 2.35471C8.40497 1.68047 7.41025 1.305 6.37859 1.29505H4.39226C4.12944 1.29433 3.87361 1.37961 3.6638 1.53787C3.55598 1.62419 3.4713 1.73595 3.41738 1.86311C3.36346 1.99026 3.34199 2.12882 3.3549 2.26633V15.9535C3.34199 16.091 3.36346 16.2295 3.41738 16.3567C3.4713 16.4838 3.55598 16.5956 3.6638 16.6819C3.8788 16.8272 4.13275 16.9041 4.39226 16.9024H6.37859ZM30.1997 17.7193C29.5014 17.7529 28.8091 17.576 28.2126 17.2113C27.7467 16.882 27.3608 16.4521 27.0835 15.9535C26.7669 15.2876 26.494 14.6017 26.2667 13.9002C26.0417 13.1702 25.7537 12.4611 25.4061 11.7809C25.1257 11.234 24.7072 10.7698 24.192 10.4347C23.544 10.0346 22.7893 9.84214 22.0289 9.88295V9.68391C23.9126 9.68391 25.2665 9.35354 26.0908 8.69281C26.5108 8.33783 26.8416 7.8893 27.0568 7.38324C27.272 6.87718 27.3654 6.3277 27.3297 5.77897C27.3622 4.59328 26.971 3.43483 26.2262 2.51163C25.7844 2.03172 25.2379 1.6602 24.6291 1.42599C24.0203 1.19178 23.3656 1.10118 22.7161 1.16126C22.2544 1.16388 21.7948 1.22325 21.3475 1.338L21.3261 15.9535C21.3255 16.0894 21.3623 16.2229 21.4323 16.3394C21.5024 16.4558 21.603 16.5509 21.7233 16.6142C22.0249 16.7852 22.368 16.8693 22.7144 16.857C23.0064 16.8574 23.2967 16.8129 23.575 16.7249V17.2766H18.0141V16.7249C18.2633 16.808 18.5237 16.8525 18.7864 16.857C18.9024 16.8651 19.0189 16.8497 19.1288 16.8118C19.2388 16.7739 19.34 16.7143 19.4265 16.6365C19.511 16.5447 19.5762 16.4367 19.6179 16.319C19.6596 16.2013 19.6771 16.0764 19.6693 15.9518V2.26633C19.6783 2.14525 19.6613 2.02364 19.6194 1.90967C19.5775 1.79571 19.5117 1.69203 19.4265 1.6056C19.3435 1.52145 19.2434 1.45619 19.1329 1.41429C19.0225 1.37238 18.9042 1.35481 18.7864 1.36278C18.5237 1.36728 18.2633 1.41184 18.0141 1.49493V0.942387H23.6874C25.087 0.889817 26.4659 1.29265 27.6171 2.09041C28.1509 2.50735 28.5735 3.04971 28.8472 3.66927C29.121 4.28884 29.2375 4.96644 29.1863 5.64186C29.1955 6.13011 29.0974 6.61441 28.899 7.06064C28.7007 7.50686 28.4069 7.90416 28.0383 8.22451C27.2191 8.95078 26.2214 9.44594 25.1476 9.65913C25.3528 9.66688 25.5543 9.71585 25.7402 9.80311C25.9261 9.89037 26.0925 10.0142 26.2295 10.1671C26.5752 10.522 26.8589 10.9324 27.0687 11.3812C27.3043 11.8519 27.5766 12.4774 27.8855 13.2577C28.2241 14.1111 28.5184 14.7955 28.7684 15.3109C28.9978 15.7967 29.3119 16.2377 29.6959 16.6134C29.867 16.7837 30.0702 16.9183 30.2939 17.0092C30.5175 17.1 30.757 17.1455 30.9984 17.1428C31.4322 17.1274 31.8433 16.9455 32.1464 16.6348C32.4957 16.3228 32.7937 15.9577 33.0293 15.5529L33.2061 15.8395C32.8935 16.4085 32.4558 16.899 31.9259 17.2741C31.4077 17.5911 30.8066 17.7461 30.1997 17.7193ZM46.6727 12.2889C46.438 12.5382 46.2907 12.857 46.2531 13.1974C46.183 13.8043 46.1527 14.4151 46.1623 15.0259V17.2774H34.9727V16.7257C35.2219 16.8088 35.4823 16.8534 35.7449 16.8578C35.861 16.8659 35.9774 16.8505 36.0874 16.8126C36.1974 16.7747 36.2986 16.7151 36.385 16.6373C36.4696 16.5455 36.5347 16.4374 36.5764 16.3198C36.6181 16.2021 36.6356 16.0772 36.6279 15.9526V2.26633C36.6369 2.14525 36.6199 2.02364 36.578 1.90967C36.5361 1.79571 36.4703 1.69203 36.385 1.6056C36.3019 1.52172 36.2018 1.45664 36.0913 1.41475C35.9809 1.37286 35.8628 1.35514 35.7449 1.36278C35.4823 1.36726 35.2219 1.41183 34.9727 1.49493V0.942387H45.2381L45.172 1.58247C45.1227 1.94094 45.1006 2.30263 45.1059 2.66443C45.0766 3.35501 45.1815 4.04472 45.4148 4.69536H45.0613C44.8772 4.31296 44.7578 3.90271 44.7078 3.48126C44.6389 3.04757 44.4971 2.62868 44.2882 2.24238C44.0261 1.86921 43.6444 1.59676 43.2063 1.47015C42.4131 1.22944 41.5848 1.125 40.7566 1.16126C40.1625 1.11355 39.5683 1.25243 39.0569 1.55852C38.7491 1.76131 38.5225 2.06599 38.4168 2.41913C38.344 2.84239 38.2998 3.27009 38.2846 3.6993V7.89579H41.3306C41.7574 7.89579 42.0517 7.88836 42.2135 7.87349C42.3655 7.85664 42.5064 7.78605 42.6108 7.67445C42.714 7.51823 42.7606 7.33142 42.743 7.14503C42.7533 6.81232 42.7237 6.47956 42.6546 6.15393C42.6388 6.05198 42.5838 5.96026 42.5011 5.89849C42.4185 5.83672 42.315 5.80981 42.2127 5.82357V5.53367H43.0733V10.6544H42.2135V10.3455C42.2658 10.3513 42.3186 10.3468 42.3691 10.3322C42.4196 10.3176 42.4667 10.2932 42.5078 10.2604C42.5488 10.2275 42.583 10.1869 42.6083 10.1409C42.6337 10.0948 42.6497 10.0442 42.6554 9.99197C42.7232 9.64301 42.7529 9.2877 42.7438 8.93232C42.7526 8.83148 42.7269 8.73062 42.6707 8.64639C42.6146 8.56216 42.5314 8.49958 42.4349 8.46898C42.0787 8.35432 41.7054 8.30207 41.3315 8.31454H38.2838V14.518C38.3023 14.942 38.3614 15.3632 38.4606 15.7759C38.5793 16.1408 38.8214 16.4529 39.1453 16.6588C39.6747 16.9606 40.2817 17.0988 40.8896 17.0561C41.8692 17.0989 42.8485 16.9643 43.7803 16.6588C44.3249 16.4709 44.7961 16.1156 45.1266 15.6437C45.4036 15.1224 45.6113 14.5671 45.7443 13.9919C45.8624 13.3971 46.0707 12.8239 46.3621 12.2922L46.6727 12.2889ZM55.6752 17.7193C54.7838 17.759 53.8964 17.5771 53.0925 17.1899C52.4212 16.7826 51.8553 16.223 51.4407 15.5562L51.1318 16.8587H50.6899V10.8542H51.283C51.2005 12.5005 51.5586 14.139 52.3203 15.6008C52.6321 16.1523 53.0902 16.607 53.644 16.9148C54.1978 17.2226 54.8258 17.3715 55.4588 17.3451C56.0677 17.3573 56.6642 17.1715 57.1585 16.8157C57.6471 16.4439 58.028 15.9487 58.262 15.3811C58.513 14.7875 58.6406 14.1491 58.6369 13.5046C58.665 12.7941 58.4722 12.0924 58.0852 11.496C57.7523 10.9706 57.2994 10.5319 56.7637 10.2158C56.0862 9.83477 55.3859 9.49578 54.6667 9.20075C53.9315 8.89757 53.2152 8.55033 52.5218 8.16091C51.9882 7.83342 51.5295 7.39723 51.1756 6.88074C50.8026 6.26261 50.6186 5.5489 50.6462 4.82751C50.6351 4.04627 50.8333 3.27631 51.2202 2.59753C51.6015 1.95023 52.149 1.4167 52.8059 1.05223C53.5057 0.67853 54.289 0.488691 55.0822 0.500521C55.6013 0.501325 56.1164 0.590994 56.6052 0.765641C57.075 0.918356 57.5155 1.14989 57.9076 1.45033C58.2015 1.63876 58.4262 1.91762 58.5477 2.24486L58.7881 0.544295H59.2118V4.93736H58.6997C58.7022 4.28757 58.5823 3.64313 58.3462 3.03774C58.1236 2.45139 57.7414 1.939 57.2428 1.55852C56.7233 1.16546 56.0842 0.963337 55.4332 0.986161C55.0102 0.971664 54.589 1.04681 54.1971 1.20666C53.8052 1.36651 53.4516 1.60746 53.1594 1.91367C52.5503 2.63139 52.242 3.55667 52.2988 4.49631C52.2813 5.07194 52.4518 5.63761 52.7845 6.10768C53.1087 6.53503 53.5133 6.89498 53.9754 7.16733C54.4611 7.44704 55.1086 7.77081 55.918 8.13861C56.7028 8.48224 57.4626 8.88049 58.1918 9.33041C58.7915 9.69432 59.298 10.1932 59.671 10.7873C60.1039 11.4645 60.3195 12.2579 60.2888 13.0611C60.2764 13.8409 60.0553 14.6032 59.6487 15.2688C59.2287 15.9828 58.6464 16.5877 57.9489 17.0346C57.275 17.4811 56.4836 17.7193 55.6752 17.7193ZM60.1351 17.7193C59.2437 17.759 58.3564 17.5771 57.5525 17.1899C56.8812 16.7826 56.3153 16.223 55.9007 15.5562L55.5918 16.8587H55.1482V10.8542H55.7429C55.6605 12.5005 56.0186 14.139 56.7803 15.6008C57.0921 16.1523 57.5501 16.607 58.1039 16.9148C58.6577 17.2226 59.2857 17.3715 59.9188 17.3451C60.5277 17.3573 61.1242 17.1715 61.6185 16.8157C62.1071 16.4439 62.4879 15.9487 62.7219 15.3811C62.973 14.7875 63.1005 14.1491 63.0969 13.5046C63.1249 12.7941 62.9322 12.0924 62.5452 11.496C62.2123 10.9706 61.7593 10.5319 61.2237 10.2158C60.5462 9.83477 59.8459 9.49578 59.1267 9.20075C58.3915 8.89757 57.6752 8.55033 56.9818 8.16091C56.4482 7.83342 55.9895 7.39723 55.6355 6.88074C55.2626 6.26261 55.0786 5.5489 55.1061 4.82751C55.095 4.04627 55.2932 3.27631 55.6801 2.59753C56.0619 1.95002 56.61 1.41646 57.2676 1.05223C57.9668 0.678802 58.7495 0.488971 59.5421 0.500521C60.0612 0.501325 60.5763 0.590994 61.0651 0.765641C61.535 0.918356 61.9754 1.14989 62.3676 1.45033C62.6615 1.63876 62.8861 1.91762 63.0077 2.24486L63.2497 0.544295H63.6717V4.93736H63.1638C63.1663 4.28757 63.0464 3.64313 62.8103 3.03774C62.5877 2.45139 62.2055 1.939 61.7069 1.55852C61.1867 1.16492 60.5467 0.962763 59.8948 0.986161C59.4718 0.971664 59.0506 1.04681 58.6587 1.20666C58.2668 1.36651 57.9132 1.60746 57.621 1.91367C57.0119 2.63139 56.7036 3.55667 56.7604 4.49631C56.7429 5.07194 56.9134 5.63761 57.2461 6.10768C57.5706 6.53511 57.9754 6.89506 58.4379 7.16733C58.9235 7.44704 59.571 7.77081 60.3804 8.13861C61.1653 8.48225 61.9251 8.88049 62.6542 9.33041C63.2539 9.69432 63.7604 10.1932 64.1334 10.7873C64.5664 11.4645 64.7819 12.2579 64.7512 13.0611C64.7388 13.8409 64.5178 14.6032 64.1111 15.2688C63.6912 15.9828 63.1088 16.5877 62.4114 17.0346C61.7372 17.4813 60.9464 17.7194 60.1376 17.7193H60.1351ZM83.9811 1.49162C83.7313 1.41082 83.4712 1.36631 83.2088 1.35948C83.088 1.35316 82.9671 1.37142 82.8536 1.41315C82.74 1.45489 82.6361 1.51924 82.5481 1.6023C82.4693 1.69224 82.4091 1.797 82.3713 1.91045C82.3334 2.0239 82.3186 2.14377 82.3276 2.26303V15.9535C82.3118 16.2014 82.3906 16.4461 82.5481 16.6381C82.7323 16.7929 82.9686 16.8717 83.2088 16.8587C83.4715 16.8542 83.7319 16.8096 83.9811 16.7265V17.2782H79.014V16.7265C79.2637 16.8073 79.5238 16.8518 79.7862 16.8587C79.9023 16.8667 80.0187 16.8513 80.1287 16.8134C80.2386 16.7756 80.3399 16.7159 80.4263 16.6381C80.5109 16.5463 80.576 16.4383 80.6177 16.3206C80.6594 16.2029 80.6769 16.0781 80.6691 15.9535V8.38143H72.4793V15.9535C72.4585 16.0774 72.4676 16.2046 72.5059 16.3243C72.5442 16.4441 72.6105 16.5529 72.6994 16.6418C72.7883 16.7307 72.8972 16.7971 73.0169 16.8354C73.1367 16.8737 73.2638 16.8828 73.3878 16.862C73.6433 16.8562 73.8965 16.8116 74.1386 16.7298V17.2815H69.1682V16.7298C69.4174 16.8129 69.6778 16.8575 69.9405 16.862C70.0565 16.87 70.1729 16.8546 70.2829 16.8167C70.3929 16.7789 70.4941 16.7192 70.5805 16.6414C70.6651 16.5496 70.7302 16.4416 70.7719 16.3239C70.8136 16.2062 70.8311 16.0814 70.8234 15.9568V2.26633C70.8324 2.14525 70.8154 2.02364 70.7735 1.90967C70.7316 1.79571 70.6658 1.69203 70.5805 1.6056C70.4976 1.52145 70.3975 1.45619 70.287 1.41429C70.1765 1.37238 70.0583 1.35481 69.9405 1.36278C69.6778 1.36728 69.4174 1.41184 69.1682 1.49493V0.942387H74.1353V1.49162C73.8861 1.40853 73.6257 1.36397 73.3631 1.35948C73.2422 1.35316 73.1214 1.37142 73.0078 1.41315C72.8942 1.45489 72.7903 1.51924 72.7023 1.6023C72.6235 1.69224 72.5634 1.797 72.5255 1.91045C72.4876 2.0239 72.4728 2.14377 72.4818 2.26303V7.93957H80.6691V2.26633C80.6782 2.14525 80.6611 2.02364 80.6193 1.90967C80.5774 1.79571 80.5116 1.69203 80.4263 1.6056C80.3434 1.52145 80.2433 1.45619 80.1328 1.41429C80.0223 1.37238 79.9041 1.35481 79.7862 1.36278C79.5238 1.36962 79.2637 1.41412 79.014 1.49493V0.942387H83.9811V1.49162ZM95.482 17.7168C94.5482 17.7246 93.6231 17.5367 92.7664 17.1651C91.9151 16.7736 91.1948 16.145 90.6917 15.3547C90.1062 14.3509 89.8085 13.2053 89.831 12.0436V2.26633C89.8401 2.14525 89.8231 2.02364 89.7812 1.90967C89.7393 1.79571 89.6735 1.69203 89.5882 1.6056C89.5051 1.52172 89.4049 1.45664 89.2945 1.41475C89.1841 1.37286 89.066 1.35514 88.9481 1.36278C88.6855 1.36726 88.4251 1.41183 88.1759 1.49493V0.942387L89.015 0.964687C89.7507 0.99387 90.3098 1.00846 90.6925 1.00846C91.0751 1.00846 91.6197 0.99387 92.3261 0.964687L93.143 0.942387V1.49162C92.8938 1.40856 92.6334 1.364 92.3707 1.35948C92.2499 1.35316 92.1291 1.37142 92.0155 1.41315C91.9019 1.45489 91.798 1.51924 91.71 1.6023C91.6312 1.69224 91.5711 1.797 91.5332 1.91045C91.4953 2.0239 91.4805 2.14377 91.4895 2.26303V11.7776C91.4481 12.8707 91.6595 13.9586 92.1073 14.9566C92.439 15.6893 92.9757 16.3103 93.6526 16.7447C94.2301 17.101 94.8943 17.2918 95.5728 17.2964C96.2447 17.3634 96.9217 17.2368 97.524 16.9317C98.1263 16.6266 98.6288 16.1556 98.9723 15.5744C99.6213 14.3601 99.948 12.9997 99.9213 11.6232V2.24486C99.923 2.11136 99.8892 1.97981 99.8233 1.86369C99.7574 1.74758 99.6618 1.65109 99.5463 1.58413C99.2691 1.41066 98.9455 1.32595 98.6188 1.34131C98.3269 1.34088 98.0366 1.38545 97.7582 1.47345V0.942387H102.46V1.4718C102.196 1.38836 101.921 1.34384 101.643 1.33965C101.359 1.32747 101.078 1.41316 100.849 1.58247C100.754 1.66382 100.679 1.76552 100.63 1.87996C100.58 1.99439 100.557 2.11858 100.562 2.24321V11.7809C100.561 12.8037 100.358 13.8162 99.9659 14.7608C99.6197 15.6306 99.0294 16.3818 98.2661 16.9239C97.4446 17.4755 96.47 17.7538 95.4811 17.7193L95.482 17.7168ZM113.297 8.15844C113.942 8.23159 114.574 8.39507 115.174 8.64408C115.909 8.90873 116.574 9.33914 117.116 9.90195C117.392 10.1844 117.609 10.5196 117.753 10.8875C117.897 11.2554 117.966 11.6486 117.955 12.0436C117.992 13.0997 117.682 14.1389 117.072 15.002C116.502 15.7794 115.721 16.377 114.821 16.724C113.902 17.093 112.92 17.2804 111.93 17.2758H106.207V16.724C106.449 16.8058 106.702 16.8504 106.957 16.8562C107.08 16.8692 107.204 16.8546 107.32 16.8136C107.436 16.7725 107.541 16.706 107.629 16.6189C107.716 16.5318 107.782 16.4263 107.823 16.3102C107.864 16.194 107.879 16.0702 107.866 15.9477V2.26633C107.879 2.14384 107.864 2.01998 107.823 1.90384C107.782 1.7877 107.716 1.68222 107.629 1.59511C107.541 1.50801 107.436 1.44149 107.32 1.40043C107.204 1.35938 107.08 1.34482 106.957 1.35782C106.702 1.36361 106.449 1.40817 106.207 1.48997V0.942387H111.575C112.833 0.909398 114.079 1.19823 115.195 1.78152C115.698 2.05258 116.112 2.46377 116.386 2.96526C116.661 3.46676 116.784 4.03703 116.74 4.60699C116.741 5.23853 116.531 5.85226 116.144 6.35133C115.769 6.85921 115.296 7.2869 114.753 7.6092C114.311 7.88383 113.813 8.05728 113.296 8.11714C113.266 8.11714 113.252 8.12457 113.252 8.13944C113.252 8.15431 113.267 8.16091 113.297 8.16091V8.15844ZM109.523 7.89332H112.484C113.132 7.87428 113.761 7.6671 114.294 7.297C114.912 6.89946 115.221 6.09006 115.221 4.8688C115.27 4.35689 115.202 3.84065 115.022 3.35886C114.842 2.87707 114.556 2.44226 114.184 2.08711C113.478 1.46341 112.561 1.13232 111.619 1.16126C110.916 1.15721 110.214 1.21637 109.522 1.338L109.523 7.89332ZM111.354 17.0544C112.276 17.084 113.19 16.871 114.003 16.4366C114.695 16.0403 115.256 15.4492 115.615 14.7369C115.987 13.9977 116.176 13.18 116.166 12.3525C116.2 11.541 116.001 10.7369 115.592 10.0349C115.256 9.47409 114.765 9.02192 114.179 8.73245C113.649 8.47446 113.069 8.3387 112.479 8.33518H109.521V14.7592C109.494 15.2713 109.577 15.7831 109.764 16.2607C109.892 16.5498 110.119 16.784 110.404 16.9214C110.711 17.0171 111.032 17.0628 111.354 17.0569V17.0544Z" fill="white"/>
</g>
<defs>
<clipPath id="clip0_1_32040">
<rect width="117.911" height="17.2187" fill="white" transform="translate(0.0429688 0.5)"/>
</clipPath>
</defs>
</svg>
